<?xml version="1.0" encoding="utf-8"?>
<!-- Generator: Adobe Illustrator 23.0.0, SVG Export Plug-In . SVG Version: 6.00 Build 0)  -->
<svg version="1.1" id="图层_1" xmlns="http://www.w3.org/2000/svg" xmlns:xlink="http://www.w3.org/1999/xlink" x="0px" y="0px"
	 viewBox="0 0 32 32" style="enable-background:new 0 0 32 32;" xml:space="preserve">
<style type="text/css">
	.st0{opacity:0.3;}
</style>
<path class="st0" d="M16,1.94c-7.76,0-14.06,6.29-14.07,14.05c-0.01,7.75,6.28,14.05,14.05,14.07c7.76,0.02,14.08-6.3,14.08-14.07
	C30.06,8.24,23.76,1.94,16,1.94z M13.62,21.88c-1.96-1.96-3.92-3.92-5.87-5.87c0.36-0.36,0.73-0.72,1.08-1.08
	c1.54,1.55,3.13,3.13,4.71,4.71c3.22-3.22,6.39-6.4,9.55-9.55c0.42,0.42,0.8,0.8,1.16,1.16C20.73,14.78,17.17,18.33,13.62,21.88z"/>
</svg>
