<svg id="图层_1" data-name="图层 1" xmlns="http://www.w3.org/2000/svg" viewBox="0 0 40 59.03"><defs><style>.cls-1{fill:#ff1fdc;opacity:0.4;}.cls-1,.cls-6{isolation:isolate;}.cls-2{fill:#ffbdb6;}.cls-3{fill:#c3cbd8;}.cls-4{fill:#fff;}.cls-5{fill:#192b3a;}.cls-6{font-size:13px;stroke:#000;stroke-miterlimit:10;stroke-width:0.5px;font-family:SimSun;letter-spacing:0.14em;}</style></defs><title>chat</title><path class="cls-1" d="M20,40.17a19.95,19.95,0,1,1,.11,0Z" transform="translate(0 -0.17)"/><path class="cls-2" d="M31.4,8.46a1.58,1.58,0,0,0-2.33-1.25l-.95.48L25,9.36l3.34,1.85,3,2.44.12-4.11Z" transform="translate(0 -0.17)"/><path d="M31.64,14.25l-3.46-2.8L24.42,9.36,28,7.45,29,7A1.86,1.86,0,0,1,31.7,8.46l.06,1.08Zm-6-4.89L28.47,11,31,13.06l.12-3.52L31.1,8.46a1.29,1.29,0,0,0-1.91-1l-1,.48Z" transform="translate(0 -0.17)"/><path class="cls-2" d="M9.44,8a1.59,1.59,0,0,1,2.33-1.26l.89.48,3.4,1.85L12.6,10.91,9.56,13A34.94,34.94,0,0,1,9.44,8Z" transform="translate(0 -0.17)"/><path d="M9.26,13.54V13c0-.48-.06-1-.06-1.49a23.67,23.67,0,0,1-.06-3.58,2,2,0,0,1,.95-1.5,2,2,0,0,1,1.79,0l.9.48L16.66,9l-3.94,2.09Zm1.79-6.69a1.37,1.37,0,0,0-.66.18,1.46,1.46,0,0,0-.65,1,16.69,16.69,0,0,0,.06,3.46c0,.29.06.65.06,1l2.62-1.79,3-1.61L11.65,7A2.13,2.13,0,0,0,11.05,6.85Zm-8,17.07a.27.27,0,0,1-.3-.24A.41.41,0,0,1,3,23.32c.54-.06,4.24-.42,4.42-.42a.3.3,0,1,1,0,.6Zm-.24,2.8a.3.3,0,0,1-.29-.24.29.29,0,0,1,.17-.35L8,24.63a.29.29,0,0,1,.35.18.3.3,0,0,1-.17.36c-.06,0-4.66,1.31-5.26,1.49A.06.06,0,0,1,2.81,26.72Zm34.44-2.8-4.42-.42a.3.3,0,0,1,0-.6c.18,0,3.88.36,4.42.42a.26.26,0,0,1,.23.36C37.54,23.8,37.42,23.92,37.25,23.92Zm-.12,2.74c-.72-.18-5.37-1.55-5.55-1.61a.27.27,0,0,1-.18-.36c.06-.11.24-.23.36-.17s4.83,1.43,5.49,1.61a.33.33,0,0,1,.23.35A.48.48,0,0,1,37.13,26.66Z" transform="translate(0 -0.17)"/><path class="cls-3" d="M33.13,21c0,6.43-5.86,10-13.08,10S7,27.46,7,21,12.82,8.4,20.05,8.4,33.13,14.6,33.13,21Z" transform="translate(0 -0.17)"/><path class="cls-4" d="M33.43,19.92a11.11,11.11,0,0,0-6.95-10.5,11.89,11.89,0,0,0-13.71,3,11.21,11.21,0,0,0-3.1,7.76A10.8,10.8,0,0,0,18.16,30.9a12.26,12.26,0,0,0,3.39.42A12.93,12.93,0,0,0,25,30.84,10.91,10.91,0,0,0,33.43,19.92Z" transform="translate(0 -0.17)"/><path d="M37.25,23.92c-.48-.06-4.24-.42-4.24-.42a.3.3,0,0,1,0-.6c.18,0,3.76.36,4.24.42a.26.26,0,0,1,.23.36C37.54,23.8,37.37,23.92,37.25,23.92Z" transform="translate(0 -0.17)"/><path d="M37.13,26.66c-.66-.18-5-1.49-5-1.49l.18-.59,5,1.49a.26.26,0,0,1,.17.35A.29.29,0,0,1,37.13,26.66Z" transform="translate(0 -0.17)"/><path d="M20.24,31.62a14.9,14.9,0,0,1-3.82-.42,11.46,11.46,0,0,1-9.73-11,10.78,10.78,0,0,1,3.58-8C13.62,9.42,17,8.11,20.36,8.11a15.12,15.12,0,0,1,5.49,1,11.52,11.52,0,0,1,7.88,10.8,11.55,11.55,0,0,1-9.61,11.22A17.24,17.24,0,0,1,20.24,31.62ZM20.36,8.7C17,8.7,13.91,10,10.63,12.64a10.12,10.12,0,0,0-3.34,7.52A10.82,10.82,0,0,0,16.54,30.6a14.25,14.25,0,0,0,3.7.42A16.15,16.15,0,0,0,24,30.54a10.9,10.9,0,0,0,9.13-10.62,10.9,10.9,0,0,0-7.52-10.2A13.87,13.87,0,0,0,20.36,8.7Z" transform="translate(0 -0.17)"/><path class="cls-5" d="M26.36,15.21c-1.31,0-2.37,1.42-2.37,3.16s1.06,3.17,2.37,3.17,2.38-1.42,2.38-3.17S27.67,15.21,26.36,15.21Zm-.47,3.13a1.16,1.16,0,1,1,1-1.15,1.09,1.09,0,0,1-1,1.15ZM14.06,15.21c-1.32,0-2.38,1.42-2.38,3.16s1.06,3.17,2.38,3.17,2.37-1.42,2.37-3.17S15.37,15.21,14.06,15.21Zm.47,3.13a1.16,1.16,0,0,1,0-2.3,1.15,1.15,0,0,1,0,2.29Zm6.29,5.55H19.6A1.09,1.09,0,0,0,18.51,25v.13A1.09,1.09,0,0,0,19.6,26.2h0V27a.56.56,0,1,0,1.12,0V26.2h.05a1.09,1.09,0,0,0,1.09-1.09V25A1.09,1.09,0,0,0,20.82,23.89Z" transform="translate(0 -0.17)"/><text class="cls-6" transform="translate(6.69 56.95)">聊天</text></svg>