<?xml version="1.0" encoding="utf-8"?>
<!-- Generator: Adobe Illustrator 23.0.0, SVG Export Plug-In . SVG Version: 6.00 Build 0)  -->
<svg version="1.1" id="图层_1" xmlns="http://www.w3.org/2000/svg" xmlns:xlink="http://www.w3.org/1999/xlink" x="0px" y="0px"
	 viewBox="0 0 110.9 106.6" style="enable-background:new 0 0 110.9 106.6;" xml:space="preserve">
<style type="text/css">
	.st0{display:none;}
	.st1{opacity:0.5;}
	.st2{fill:#FFFFFF;}
</style>
<title>get00</title>
<path class="st0" d="M54.2,116.6c-33.3,0-60-26.7-60-60s26.7-60,60-60s60,26.7,60,60S87.4,116.6,54.2,116.6z M54.2,111.2
	c30,0,54.5-24.5,54.5-54.5S84.2,2.1,54.2,2.1S-0.4,26.6-0.4,56.6S24.2,111.2,54.2,111.2L54.2,111.2z"/>
<path class="st1" d="M54.2,89.7c-19.4,0-35-15.6-35-35s15.6-35,35-35s35,15.6,35,35S73.6,89.7,54.2,89.7z"/>
<path class="st2" d="M67.5,78.1c-0.7,0-1.5-0.2-2.2-0.5l-11.1-5.8l-11.1,5.9c-0.7,0.4-1.4,0.5-2.2,0.5c-0.9,0-1.9-0.3-2.6-0.8
	c-1.4-1-2.2-2.7-1.9-4.3l2.1-12.6l-9.3-9.1c-1.2-1.2-1.6-2.9-1.1-4.5s1.9-2.7,3.6-2.9L44.5,42l5.5-11.2c0.7-1.5,2.4-2.5,4.1-2.5
	c1.8,0,3.4,1,4.1,2.5L63.8,42l12.7,1.9c1.7,0.2,3.1,1.4,3.6,2.9c0.6,1.6,0.1,3.3-1.1,4.5l-9.3,9.1l2.1,12.6c0.3,1.7-0.4,3.3-1.9,4.3
	C69.3,77.9,68.4,78.1,67.5,78.1L67.5,78.1z M54.2,68.9c0.6,0,1.1,0.1,1.7,0.4l12.6,6.6c0.1,0,0.2,0.1,0.3,0.1c0.1,0,0.2,0,0.3-0.1
	s0.2-0.2,0.2-0.3l-2.4-14.3c-0.2-1.1,0.2-2.2,1-3l10.5-10.3c0.1-0.1,0.1-0.2,0.1-0.3c0-0.1-0.2-0.2-0.4-0.3l-14.4-2.1
	c-1.1-0.2-2.1-0.9-2.6-1.9l-6.2-12.7c-0.1-0.1-0.3-0.2-0.5-0.2s-0.4,0.1-0.5,0.3l-6.2,12.7c-0.5,1-1.5,1.7-2.6,1.9l-14.4,2.1
	c-0.2,0-0.4,0.2-0.4,0.3c0,0.1,0,0.2,0.1,0.3l10.5,10.3c0.8,0.8,1.2,1.9,1,3l-2.4,14.2c0,0.1,0,0.2,0.2,0.3c0.1,0.1,0.2,0.1,0.3,0.1
	c0.1,0,0.2,0,0.3-0.1l12.5-6.6C53.1,69,53.6,68.9,54.2,68.9L54.2,68.9z"/>
</svg>
