<?xml version="1.0" encoding="utf-8"?>
<!-- Generator: Adobe Illustrator 23.0.0, SVG Export Plug-In . SVG Version: 6.00 Build 0)  -->
<svg version="1.1" id="图层_1" xmlns="http://www.w3.org/2000/svg" xmlns:xlink="http://www.w3.org/1999/xlink" x="0px" y="0px"
	 viewBox="0 0 16 16" style="enable-background:new 0 0 16 16;" xml:space="preserve">
<style type="text/css">
	.st0{fill:#00C9C7;}
</style>
<title>history</title>
<path class="st0" d="M8,8.4c-0.3,0-0.5-0.2-0.5-0.5v-4c0-0.3,0.2-0.5,0.5-0.5c0.3,0,0.5,0.2,0.5,0.5v4C8.5,8.2,8.3,8.4,8,8.4z"/>
<path class="st0" d="M11.5,10.5c-0.1,0-0.2,0-0.3-0.1l-3.5-2C7.5,8.3,7.5,8,7.6,7.7C7.8,7.5,8,7.5,8.3,7.6l3.5,2
	c0.2,0.1,0.3,0.4,0.2,0.7C11.8,10.4,11.6,10.5,11.5,10.5z"/>
<path class="st0" d="M8,16c-4.4,0-8-3.6-8-8s3.6-8,8-8s8,3.6,8,8S12.4,16,8,16z M8,1C4.1,1,1,4.1,1,8s3.1,7,7,7s7-3.1,7-7
	S11.9,1,8,1z"/>
</svg>
