<?xml version="1.0" encoding="utf-8"?>
<!-- Generator: Adobe Illustrator 23.0.0, SVG Export Plug-In . SVG Version: 6.00 Build 0)  -->
<svg version="1.1" id="图层_1" xmlns="http://www.w3.org/2000/svg" xmlns:xlink="http://www.w3.org/1999/xlink" x="0px" y="0px"
	 viewBox="0 0 256.5 127.9" style="enable-background:new 0 0 256.5 127.9;" xml:space="preserve">
<style type="text/css">
	.st0{fill:#FF8AA1;}
	.st1{fill:#FFFFFF;stroke:#FFFFFF;stroke-miterlimit:10;}
	.st2{fill:#FFFFFF;}
	.st3{font-family:'SimSun';}
	.st4{font-size:44px;}
	.st5{letter-spacing:6;}
	.st6{fill:none;stroke:#000000;stroke-miterlimit:10;}
	.st7{fill:#FFFFFF;stroke:#FFFFFF;stroke-width:3;stroke-miterlimit:10;}
</style>
<title>kankan</title>
<path class="st0" d="M0,113.2c0,8.3,6.7,15,15,15l0,0h105.3c8.3,0,15-6.7,15-15l0,0l0,0V15.3c0-8.3-6.7-15-15-15H15
	C6.7,0.3,0,7,0,15.3V113.2z"/>
<path class="st1" d="M60.39,22.72L29.85,53.8c-0.72,0.74-0.84,1.83-0.22,2.44l0,0l22.61,22.22c0.61,0.6,1.71,0.47,2.43-0.26l0,0
	l30.55-31.08c0.72-0.74,0.84-1.83,0.22-2.44L62.83,22.46C62.21,21.85,61.12,21.98,60.39,22.72L60.39,22.72z M81.67,46.29
	L53.78,74.67L33.39,54.63l27.89-28.38L81.67,46.29L81.67,46.29z"/>
<path class="st2" d="M77.46,45.17c0.07,0.55-0.11,1.22-0.59,1.71L54.29,69.85c-0.48,0.49-1.21,0.74-1.82,0.62
	c-0.61-0.12-1.04-0.66-1.05-1.27l-0.95-11.32c-0.07-0.91,0.59-1.83,1.57-2.08l6.68-1.89l-0.46-11.2c-0.01-0.61,0.23-1.22,0.72-1.59
	c0.48-0.49,1.15-0.68,1.76-0.56l15.68,3.58C76.9,44.14,77.33,44.56,77.46,45.17z"/>
<path class="st2" d="M44.57,52.46c1.23,1.21,3.48,1.01,4.93-0.47l0,0c1.51-1.54,1.61-3.73,0.38-4.94l0,0
	c-1.23-1.21-3.48-1.01-4.93,0.47l0,0C43.39,49,43.28,51.19,44.57,52.46L44.57,52.46z"/>
<text transform="matrix(1 0 0 1 159.1975 76.4742)" class="st3 st4 st5">看看</text>
<text transform="matrix(1 0 0 1 159.1975 76.4742)" class="st6 st3 st4 st5">看看</text>
<path class="st7" d="M68.81,86.57c-0.42,0.43-0.42,1.04,0.01,1.46l0,0c0.43,0.42,1.04,0.42,1.46-0.01c0.42-0.43,0.42-1.04-0.01-1.46
	C69.84,86.14,69.17,86.21,68.81,86.57L68.81,86.57z M95.25,55.54c-0.36,0.12-0.61,0.37-0.73,0.73l-2.81,13.83l-4.16-4.13
	c-1.59-1.58-4.21-1.63-5.85,0.02L63.56,84.28c-1.58,1.59-1.63,4.21,0.02,5.85l14.61,14.5c1.59,1.58,4.21,1.63,5.85-0.02l18.14-18.28
	c1.58-1.59,1.63-4.21-0.02-5.85l-3.48-3.46l13.94-2.79c0.36-0.12,0.67-0.43,0.73-0.73c0.12-0.37,0-0.73-0.25-0.97L96.22,55.78
	C95.98,55.53,95.55,55.48,95.25,55.54L95.25,55.54z M91.53,72.85c0.06,0.06,0.12,0.12,0.12,0.12l4.22,4.19
	c0.06,0.06,0.12,0.12,0.12,0.12l4.77,4.73c0.79,0.79,0.8,2.13,0.01,2.92l-18.14,18.28c-0.79,0.79-2.13,0.8-2.92,0.01L65.16,88.78
	c-0.79-0.79-0.8-2.13-0.01-2.92l18.14-18.28c0.79-0.79,2.13-0.8,2.92-0.01L91.53,72.85z M110.35,72.72l-13.33,2.67l-3.42-3.4
	l2.63-13.29L110.35,72.72z"/>
</svg>
