<svg id="图层_1" data-name="图层 1" xmlns="http://www.w3.org/2000/svg" viewBox="0 0 258.13 127.9"><defs><style>.cls-1{fill:#ff8aa1;}.cls-2,.cls-3{isolation:isolate;}.cls-2{font-size:44px;stroke:#000;stroke-miterlimit:10;font-family:SimSun;letter-spacing:0.2em;}.cls-4{fill:#fff;}</style></defs><title>liaotian</title><path class="cls-1" d="M0,112.9a15,15,0,0,0,15,15H120.3a15,15,0,0,0,15-15h0V15a15,15,0,0,0-15-15H15A15,15,0,0,0,0,15Z"/><text class="cls-2" transform="translate(152.03 79.18)">聊天</text><text class="cls-3"/><path class="cls-4" d="M98.76,27.28H36.54a8.91,8.91,0,0,0-8.89,8.89v40a8.9,8.9,0,0,0,8.89,8.89H51.17L66.08,100a2.23,2.23,0,0,0,3.14,0h0L84.13,85.06H98.76a8.9,8.9,0,0,0,8.89-8.89v-40A8.91,8.91,0,0,0,98.76,27.28Zm4.45,48.89a4.47,4.47,0,0,1-4.45,4.45H83.21a2.23,2.23,0,0,0-1.58.65l-14,14-14-14a2.23,2.23,0,0,0-1.58-.65H36.54a4.47,4.47,0,0,1-4.45-4.45v-40a4.46,4.46,0,0,1,4.45-4.44H98.76a4.46,4.46,0,0,1,4.45,4.44Z"/><path class="cls-4" d="M45.43,56.17a4.45,4.45,0,1,0,8.89,0h0a4.45,4.45,0,0,0-8.89,0Z"/><path class="cls-4" d="M63.21,56.17a4.44,4.44,0,1,0,8.88,0h0a4.44,4.44,0,1,0-8.88,0Z"/><path class="cls-4" d="M81,56.17a4.45,4.45,0,1,0,8.89,0h0a4.45,4.45,0,0,0-8.89,0Z"/></svg>