<?xml version="1.0" encoding="utf-8"?>
<!-- Generator: Adobe Illustrator 23.0.0, SVG Export Plug-In . SVG Version: 6.00 Build 0)  -->
<svg version="1.1" id="图层_1" xmlns="http://www.w3.org/2000/svg" xmlns:xlink="http://www.w3.org/1999/xlink" x="0px" y="0px"
	 viewBox="0 0 66.8 39.3" style="enable-background:new 0 0 66.8 39.3;" xml:space="preserve">
<style type="text/css">
	.st0{opacity:5.000000e-02;}
	.st1{opacity:0.7;}
</style>
<g class="st0">
	<path d="M66.8,29.3c0,5.5-4.5,10-10,10H10c-5.5,0-10-4.5-10-10V10C0,4.5,4.5,0,10,0h46.8c5.5,0,10,4.5,10,10V29.3z"/>
</g>
<title>more</title>
<path class="st1" d="M53,14.3c-3,0-5.3,2.4-5.3,5.3S50.1,25,53,25c3,0,5.3-2.4,5.3-5.3l0,0C58.4,16.7,56,14.3,53,14.3z M33.4,14.3
	c-3,0-5.3,2.4-5.3,5.3s2.4,5.3,5.3,5.3c3,0,5.3-2.4,5.3-5.3l0,0C38.7,16.7,36.3,14.3,33.4,14.3z M13.7,14.3c-3,0-5.3,2.4-5.3,5.4
	c0,3,2.4,5.3,5.4,5.3c2.9,0,5.3-2.4,5.3-5.3C19.1,16.7,16.7,14.3,13.7,14.3C13.7,14.3,13.7,14.3,13.7,14.3z"/>
</svg>
