<?xml version="1.0" encoding="utf-8"?>
<!-- Generator: Adobe Illustrator 23.0.0, SVG Export Plug-In . SVG Version: 6.00 Build 0)  -->
<svg version="1.1" id="图层_1" xmlns="http://www.w3.org/2000/svg" xmlns:xlink="http://www.w3.org/1999/xlink" x="0px" y="0px"
	 viewBox="0 0 200 200" style="enable-background:new 0 0 200 200;" xml:space="preserve">
<style type="text/css">
	.st0{fill:#FFFFFF;}
</style>
<path class="st0" d="M100.69,50.69c-27.57,0-50,22.43-50,50s22.43,50,50,50s50-22.43,50-50S128.26,50.69,100.69,50.69z
	 M100.69,146.55c-25.29,0-45.85-20.57-45.85-45.86s20.57-45.86,45.85-45.86s45.85,20.57,45.85,45.86S125.98,146.55,100.69,146.55z
	 M110.43,101.54L110.43,101.54c4.7-3.14,7.79-8.5,7.79-14.57c0-9.68-7.85-17.53-17.53-17.53s-17.53,7.85-17.53,17.53
	c0,6.08,3.1,11.43,7.79,14.57c-9.86,3.89-16.84,13.49-16.84,24.73c0,0.02,0,0.04,0,0.06c0,0,0,0.01,0,0.01
	c0,1.54,1.24,2.78,2.78,2.78c1.53,0,2.15-1.24,2.15-2.78c0-0.03-0.01-0.06-0.01-0.1c0.01-11.6,10.05-21.63,21.65-21.63
	c11.61,0,21.65,10.04,21.65,21.65c0,0.01-0.14,2.86,2.16,2.86c1.52,0,2.76-1.24,2.76-2.76c0-0.01,0-0.01,0-0.02
	c0-0.03,0-0.05,0-0.08C127.27,115.03,120.29,105.43,110.43,101.54z M100.69,100.22c-7.32,0-13.25-5.93-13.25-13.25
	c0-7.32,5.93-13.25,13.25-13.25c7.32,0,13.25,5.93,13.25,13.25S108.01,100.22,100.69,100.22z"/>
</svg>
