<svg id="图层_1" data-name="图层 1" xmlns="http://www.w3.org/2000/svg" viewBox="0 0 52.5 49.9"><defs><style>.cls-1{fill:#fff;}</style></defs><title>nice_n</title><path class="cls-1" d="M48.31,58.42a4.6,4.6,0,0,1-2.18-.54L35,52.06,24,57.91a4.68,4.68,0,0,1-2.2.54,4.62,4.62,0,0,1-2.6-.78,4.33,4.33,0,0,1-1.88-4.33l2.15-12.62-9.35-9.14A4.19,4.19,0,0,1,9,27.1a4.46,4.46,0,0,1,3.64-2.92l12.72-1.89,5.52-11.23a4.64,4.64,0,0,1,8.24,0l5.52,11.23,12.72,1.85A4.47,4.47,0,0,1,61,27.06a4.24,4.24,0,0,1-1.07,4.51l-9.35,9.11L52.73,53.3a4.33,4.33,0,0,1-1.92,4.37,4.66,4.66,0,0,1-2.54.75ZM35,49.15a3.65,3.65,0,0,1,1.66.39l12.56,6.61a.58.58,0,0,0,.26.06.59.59,0,0,0,.32-.09.4.4,0,0,0,.17-.3L47.53,41.54a3.45,3.45,0,0,1,1-3L59,28.29a.31.31,0,0,0,.1-.3.53.53,0,0,0-.39-.26L44.37,25.6a3.43,3.43,0,0,1-2.63-1.92L35.49,11a.53.53,0,0,0-.46-.22.47.47,0,0,0-.45.26L28.33,23.71a3.56,3.56,0,0,1-2.63,1.92L11.25,27.72a.53.53,0,0,0-.39.26.27.27,0,0,0,.1.29L21.5,38.58a3.43,3.43,0,0,1,1,3L20,55.86a.33.33,0,0,0,.16.32.53.53,0,0,0,.32.1.78.78,0,0,0,.3-.07l12.52-6.6A3.45,3.45,0,0,1,35,49.15Z" transform="translate(-8.75 -8.55)"/></svg>