<svg id="图层_1" data-name="图层 1" xmlns="http://www.w3.org/2000/svg" viewBox="0 0 52.49 49.9"><defs><style>.cls-1{fill:#f4ea2a;}</style></defs><title>nice_huang</title><path class="cls-1" d="M39.56,49.87a4.6,4.6,0,0,1-2.18-.54L26.25,43.51l-11,5.85a4.68,4.68,0,0,1-2.2.54,4.62,4.62,0,0,1-2.6-.78,4.33,4.33,0,0,1-1.88-4.33l2.15-12.62L1.37,23A4.18,4.18,0,0,1,.25,18.55a4.46,4.46,0,0,1,3.64-2.92l12.72-1.89L22.13,2.51a4.64,4.64,0,0,1,8.24,0l5.52,11.23,12.72,1.85a4.46,4.46,0,0,1,3.64,2.92A4.24,4.24,0,0,1,51.18,23l-9.35,9.11L44,44.75a4.33,4.33,0,0,1-1.92,4.37,4.68,4.68,0,0,1-2.54.75ZM26.25,40.6a3.65,3.65,0,0,1,1.66.39L40.47,47.6a.58.58,0,0,0,.26.06.62.62,0,0,0,.32-.09.4.4,0,0,0,.17-.3L38.78,33a3.45,3.45,0,0,1,1-3L50.25,19.74a.31.31,0,0,0,.1-.3.53.53,0,0,0-.39-.26L35.62,17.05A3.45,3.45,0,0,1,33,15.13L26.74,2.45a.53.53,0,0,0-.46-.22.47.47,0,0,0-.45.26L19.58,15.16A3.56,3.56,0,0,1,17,17.08L2.5,19.17a.53.53,0,0,0-.39.26.27.27,0,0,0,.1.29L12.75,30a3.43,3.43,0,0,1,1,3l-2.5,14.28a.34.34,0,0,0,.16.32.53.53,0,0,0,.32.1.78.78,0,0,0,.3-.07l12.52-6.6A3.39,3.39,0,0,1,26.25,40.6Z" transform="translate(-0.01 0)"/></svg>