<svg id="图层_1" data-name="图层 1" xmlns="http://www.w3.org/2000/svg" viewBox="0 0 70 70"><defs><style>.cls-1{opacity:0.6;}.cls-2{opacity:0.5;}.cls-3{fill:#fff;}</style></defs><title>nice</title><path class="cls-2" d="M54.19,89.71a35,35,0,1,1,35-35A34.9,34.9,0,0,1,54.19,89.71Z" transform="translate(-19.19 -19.71)"/><path class="cls-3" d="M67.5,78.13a4.63,4.63,0,0,1-2.18-.54l-11.1-5.82L43.14,77.62a4.68,4.68,0,0,1-2.2.54,4.62,4.62,0,0,1-2.6-.78,4.33,4.33,0,0,1-1.88-4.33l2.15-12.62-9.35-9.14a4.2,4.2,0,0,1-1.07-4.48,4.47,4.47,0,0,1,3.64-2.92L44.55,42l5.52-11.23a4.64,4.64,0,0,1,8.24,0L63.83,42l12.72,1.85a4.48,4.48,0,0,1,3.64,2.92,4.25,4.25,0,0,1-1.07,4.51l-9.35,9.11,2.15,12.62A4.33,4.33,0,0,1,70,77.38a4.59,4.59,0,0,1-2.54.75ZM54.19,68.86a3.65,3.65,0,0,1,1.66.39l12.56,6.61a.62.62,0,0,0,.26.06.55.55,0,0,0,.32-.09.41.41,0,0,0,.17-.3L66.72,61.25a3.45,3.45,0,0,1,1-3L78.23,48a.31.31,0,0,0,.1-.3.55.55,0,0,0-.39-.26L63.56,45.31a3.42,3.42,0,0,1-2.63-1.92L54.68,30.7a.53.53,0,0,0-.46-.22.46.46,0,0,0-.45.26L47.52,43.42a3.56,3.56,0,0,1-2.63,1.92L30.44,47.43a.52.52,0,0,0-.39.26.28.28,0,0,0,.1.29L40.69,58.29a3.41,3.41,0,0,1,1,3L39.23,75.57c0,.09,0,.22.16.32a.51.51,0,0,0,.32.1.82.82,0,0,0,.3-.07l12.52-6.6a3.4,3.4,0,0,1,1.66-.46Z" transform="translate(-19.19 -19.71)"/></svg>