<svg id="图层_1" data-name="图层 1" xmlns="http://www.w3.org/2000/svg" viewBox="0 0 100 100"><defs><style>.cls-1{fill:#fff;opacity:0;}</style></defs><title>nothing</title><path class="cls-1" d="M94,50a50,50,0,1,0,50,50A50.06,50.06,0,0,0,94,50Zm0,95.86A45.86,45.86,0,1,1,139.89,100,45.91,45.91,0,0,1,94,145.86Zm9.74-45h0a17.54,17.54,0,1,0-19.47,0,26.59,26.59,0,0,0-16.84,24.73v.08a2.77,2.77,0,0,0,2.78,2.77c1.53,0,2.15-1.24,2.15-2.77,0,0,0-.07,0-.1a21.66,21.66,0,0,1,43.31,0s-.15,2.85,2.16,2.85a2.76,2.76,0,0,0,2.76-2.76v-.09A26.6,26.6,0,0,0,103.78,100.85ZM94,99.53a13.25,13.25,0,1,1,13.25-13.25A13.25,13.25,0,0,1,94,99.53Z" transform="translate(-44.04 -50)"/></svg>