<svg id="图层_1" data-name="图层 1" xmlns="http://www.w3.org/2000/svg" viewBox="0 0 14.06 14.06"><defs><style>.cls-1{fill:#1296db;}</style></defs><title>set</title><path class="cls-1" d="M8,6.62l-1.11.66V8.61l.55.44L8,9.38l.66-.33.56-.44V7.28L8.61,7,8,6.62Zm0-.78-.89.44-1,.56V9.05l1,.56.89.55,1-.55.89-.56V6.84l-.89-.56ZM8,5l2.66,1.56v3L8,11.05l-1.22-.78L5.4,9.49v-3l1.33-.78L8,5ZM1.86,7,3,6.73l.66-1.22L3,4.4,4.4,2.85l1.11.78L6.62,3,7,1.74H9.06L9.28,3l1.1.67,1.22-.78L13,4.4l-.66,1.11L13,6.73,14.15,7v2l-1.22.44-.55,1.11.77,1.11L11.71,13l-1.1-.67-1.22.56-.22,1.22H6.84l-.22-1.22L5.4,12.37,4.29,13,2.85,11.6l.67-1.11L3.08,9.38,1.75,8.94l.11-2Zm13.06-.11a.63.63,0,0,0-.55-.67l-.89-.11-.22-.55.56-.78c.11-.33.11-.66-.11-.77L12,2.3a.51.51,0,0,0-.77-.11l-.89.55-.33-.33-.22-.89A.7.7,0,0,0,9.17,1H6.84a.7.7,0,0,0-.66.55L6,2.41l-.44.33-.88-.55a.55.55,0,0,0-.78.11L2.3,4c-.22.11-.22.44-.11.77l.55.78-.33.55-.88.11A.63.63,0,0,0,1,6.84V9.05c0,.22.11.56.45.56l1.1.44.11.33-.55.89a.53.53,0,0,0,.11.77L3.85,13.7a.69.69,0,0,0,.78.11l.77-.55.44.22.23,1a.62.62,0,0,0,.66.55H9.28a.7.7,0,0,0,.66-.55l.11-1,.44-.22.78.55a.85.85,0,0,0,.89-.11L13.82,12c.22-.11.22-.55.11-.77l-.56-.89.11-.33,1.11-.44c.22,0,.44-.34.44-.56l-.11-2.21Z" transform="translate(-0.97 -0.97)"/></svg>