<?xml version="1.0" encoding="utf-8"?>
<!-- Generator: Adobe Illustrator 23.0.0, SVG Export Plug-In . SVG Version: 6.00 Build 0)  -->
<svg version="1.1" id="图层_1" xmlns="http://www.w3.org/2000/svg" xmlns:xlink="http://www.w3.org/1999/xlink" x="0px" y="0px"
	 viewBox="0 0 270.3 127.9" style="enable-background:new 0 0 270.3 127.9;" xml:space="preserve">
<style type="text/css">
	.st0{fill:#FF8AA1;}
	.st1{fill:#FFFFFF;}
	.st2{stroke:#000000;stroke-miterlimit:10;}
	.st3{font-family:'SimSun';}
	.st4{font-size:44px;}
	.st5{letter-spacing:8;}
</style>
<title>shang</title>
<path class="st0" d="M0,112.9c0,8.3,6.7,15,15,15l0,0h105.3c8.3,0,15-6.7,15-15l0,0V15c0-8.3-6.7-15-15-15H15C6.7,0,0,6.7,0,15
	V112.9z"/>
<path class="st1" d="M33,48.6l-5.3,51c-0.2,2.2,1.3,4.1,3.5,4.4h72.5c2.2,0,4-1.8,4-4v-0.4l-5.3-51c-0.3-2.2-2.1-3.9-4.3-3.9H84.4
	v-4.1C84.4,31.4,77,24,67.8,24s-16.6,7.4-16.6,16.6l0,0l0,0v4.1h-14C35,44.7,33.2,46.4,33,48.6z M56.8,50.2v-9.6c0-6.1,4.9-11,11-11
	c0,0,0,0,0,0h0.1c6.1,0,11.1,4.9,11.1,11c0,0,0,0,0,0l0,0v9.6h19.2c-0.6,0-1.1-0.5-1.2-1.1l5.3,51c0-0.8,0.6-1.5,1.4-1.7h-72
	c0.8,0,1.5,0.7,1.5,1.5v0.2l5.3-51c-0.1,0.6-0.6,1.1-1.2,1.1H56.8z M78.9,50.2v12.4c0,1.5,1.3,2.8,2.8,2.8c1.5,0,2.8-1.3,2.8-2.8
	V44.7H56.8v5.5L78.9,50.2z M56.8,50.2h-5.5v12.4c0,1.5,1.3,2.8,2.8,2.8s2.8-1.3,2.8-2.8c0,0,0,0,0,0l0,0L56.8,50.2z"/>
<text transform="matrix(1 0 0 1 152.0302 79.1803)" class="st2 st3 st4 st5">淘喵</text>
</svg>
