<svg id="图层_1" data-name="图层 1" xmlns="http://www.w3.org/2000/svg" viewBox="0 0 45 45"><defs><style>.cls-1{fill:#fff;}</style></defs><title>share_n</title><path class="cls-1" d="M55.2,36.7v13a5.59,5.59,0,0,1-5.6,5.6H20.4a5.59,5.59,0,0,1-5.6-5.6V20.4a5.59,5.59,0,0,1,5.6-5.6h8.9a1.1,1.1,0,0,0,0-2.2H20.4a7.92,7.92,0,0,0-7.9,7.9h0V49.7a7.92,7.92,0,0,0,7.9,7.9H49.6a7.85,7.85,0,0,0,7.9-7.9v-13a1.11,1.11,0,0,0-1.1-1.1A1.13,1.13,0,0,0,55.2,36.7Z" transform="translate(-12.5 -12.6)"/><path class="cls-1" d="M54.7,18.1A28.12,28.12,0,0,0,26.6,46.2a1.1,1.1,0,1,0,2.2,0A25.91,25.91,0,0,1,54.7,20.3a1.1,1.1,0,0,0,0-2.2Z" transform="translate(-12.5 -12.6)"/><path class="cls-1" d="M44.1,15.2l11.3,4.5a1.08,1.08,0,0,0,1.4-.7,1.11,1.11,0,0,0-.6-1.4L45,13.1a1.08,1.08,0,0,0-1.4.7h0A1,1,0,0,0,44.1,15.2Z" transform="translate(-12.5 -12.6)"/><path class="cls-1" d="M48,27.8l8.6-8.3a1.13,1.13,0,0,0-.2-1.6,1.2,1.2,0,0,0-1.4,0h0l-8.5,8.3a1.25,1.25,0,0,0,.3,1.6,1.27,1.27,0,0,0,1.2,0Z" transform="translate(-12.5 -12.6)"/></svg>