<?xml version="1.0" encoding="utf-8"?>
<!-- Generator: Adobe Illustrator 23.0.0, SVG Export Plug-In . SVG Version: 6.00 Build 0)  -->
<svg version="1.1" id="图层_1" xmlns="http://www.w3.org/2000/svg" xmlns:xlink="http://www.w3.org/1999/xlink" x="0px" y="0px"
	 viewBox="0 0 70 70" style="enable-background:new 0 0 70 70;" xml:space="preserve">
<style type="text/css">
	.st0{opacity:0.5;enable-background:new    ;}
	.st1{fill:#FFFFFF;}
</style>
<title>share</title>
<path class="st0" d="M35,70C15.7,70,0,54.3,0,35S15.7,0,35,0s35,15.7,35,35c0.1,19.3-15.5,34.9-34.8,35C35.1,70,35.1,70,35,70z"/>
<path class="st1" d="M55.2,36.7v13c0,3.1-2.5,5.6-5.6,5.6c0,0,0,0,0,0H20.4c-3.1,0-5.6-2.5-5.6-5.6V20.4c0-3.1,2.5-5.6,5.6-5.6
	c0,0,0,0,0,0h8.9c0.6,0,1.1-0.5,1.1-1.1c0-0.6-0.5-1.1-1.1-1.1h-8.9c-4.3,0-7.9,3.5-7.9,7.9l0,0v29.2c0,4.3,3.5,7.9,7.9,7.9
	c0,0,0,0,0,0h29.2c4.4,0,7.9-3.5,7.9-7.9v-13c0-0.6-0.5-1.1-1.1-1.1S55.2,36,55.2,36.7z"/>
<path class="st1" d="M54.7,18.1c-15.5,0-28.1,12.6-28.1,28.1c0,0.6,0.5,1.1,1.1,1.1c0.6,0,1.1-0.5,1.1-1.1
	c0-14.3,11.6-25.9,25.9-25.9c0.6,0,1.1-0.5,1.1-1.1S55.3,18.1,54.7,18.1z"/>
<path class="st1" d="M44.1,15.2l11.3,4.5c0.6,0.2,1.2-0.1,1.4-0.7c0.2-0.6-0.1-1.2-0.6-1.4L45,13.1c-0.6-0.2-1.2,0.1-1.4,0.7
	c0,0,0,0,0,0C43.3,14.3,43.6,15,44.1,15.2z"/>
<path class="st1" d="M48,27.8l8.6-8.3c0.4-0.5,0.3-1.2-0.2-1.6c-0.4-0.3-0.9-0.3-1.4,0l0,0l-8.5,8.3c-0.3,0.5-0.2,1.2,0.3,1.6
	C47.2,28,47.6,28,48,27.8L48,27.8z"/>
</svg>
