<svg id="图层_1" data-name="图层 1" xmlns="http://www.w3.org/2000/svg" xmlns:xlink="http://www.w3.org/1999/xlink" viewBox="0 0 270.3 127.9"><defs><style>.cls-1{fill:#ff8aa1;}.cls-2,.cls-5{fill:#fff;}.cls-3,.cls-7{fill:none;}.cls-4,.cls-5,.cls-6,.cls-7{isolation:isolate;}.cls-5,.cls-6,.cls-7{font-size:44px;font-family:SimSun;}.cls-7{stroke:#000;stroke-miterlimit:10;}</style></defs><title>she</title><path class="cls-1" d="M0,112.9a15,15,0,0,0,15,15H120.3a15,15,0,0,0,15-15V15a15,15,0,0,0-15-15H15A15,15,0,0,0,0,15Z"/><path class="cls-2" d="M90.6,75.9A15.85,15.85,0,0,0,76.8,84L57.3,73.6a16,16,0,0,0,2.2-8,15.18,15.18,0,0,0-1.2-5.9L79.8,46a16,16,0,1,0-2.2-3.9L56.1,55.8a15.73,15.73,0,1,0-2.5,22.1,6.47,6.47,0,0,0,.9-.8L75.2,88.2a19.7,19.7,0,0,0-.4,3.4A15.75,15.75,0,1,0,90.6,75.9Zm1.7-50.4A10.8,10.8,0,1,1,81.5,36.3h0A10.82,10.82,0,0,1,92.3,25.5ZM43.8,76.4A10.8,10.8,0,1,1,54.6,65.6,10.76,10.76,0,0,1,43.8,76.4Zm46.8,26.1a10.8,10.8,0,1,1,10.8-10.8A10.88,10.88,0,0,1,90.6,102.5Z"/><rect class="cls-3" x="158.7" y="12.1" width="88.7" height="106.7"/><image class="cls-4" width="100" height="100" transform="translate(135.3 0.45) scale(1.35 1.27)" xlink:href="../images/list_bg2.png"/><text class="cls-5" transform="translate(159.03 45.38)">推荐</text><text class="cls-6" transform="translate(159.03 45.38)">推荐</text><text class="cls-7" transform="translate(159.03 45.38)">推荐</text><text class="cls-5" transform="translate(159.03 98.18)">分享</text><text class="cls-6" transform="translate(159.03 98.18)">分享</text><text class="cls-7" transform="translate(159.03 98.18)">分享</text></svg>