<?xml version="1.0" encoding="utf-8"?>
<!-- Generator: Adobe Illustrator 23.0.0, SVG Export Plug-In . SVG Version: 6.00 Build 0)  -->
<svg version="1.1" id="图层_1" xmlns="http://www.w3.org/2000/svg" xmlns:xlink="http://www.w3.org/1999/xlink" x="0px" y="0px"
	 viewBox="0 0 40 58.3" style="enable-background:new 0 0 40 58.3;" xml:space="preserve">
<style type="text/css">
	.st0{opacity:0.4;fill:#FF8AA1;enable-background:new    ;}
	.st1{fill:#C3CBD8;}
	.st2{fill:#FFFFFF;}
	.st3{fill:#192B3A;}
	.st4{fill:#FF99B6;}
	.st5{font-family:'SimSun';}
	.st6{font-size:13.0326px;}
	.st7{fill:none;stroke:#000000;stroke-width:0.5;stroke-miterlimit:10;}
</style>
<title>shop</title>
<path class="st0" d="M20,40C9,40,0.1,31,0.1,20S9.1,0,20.1,0S40,9,40,20.1S31.1,40,20.1,40H20z"/>
<path class="st1" d="M36.8,22.6c0.1-0.4-0.2-0.7-0.6-0.8c-1.2-0.2-2.3-0.3-3.5-0.3c-0.4-2.2-1.4-4.2-2.7-5.9
	c0.1-0.1,0.1-0.2,0.1-0.3c0-0.8,0-5.2-1.7-6.2c-2.2-1.3-5.8,0.6-6.9,1.2c-0.6-0.1-1.2-0.1-1.9-0.1c-0.7,0-1.3,0.1-2,0.2
	c-1.1-0.7-4.7-2.7-7-1.3C9.1,10,9,14.4,9,15.2c0,0.1,0,0.2,0.1,0.3c-1.4,1.7-2.4,3.8-2.9,5.9c-1.2,0.1-2.3,0.2-3.5,0.4
	c-0.4,0.1-0.6,0.4-0.6,0.8C2.3,23,2.6,23.2,3,23.2c0,0,1.3-0.2,3-0.3c0,0.3,0,0.7,0,1s0,0.7,0.1,1c-1.1,0.4-2.2,0.9-3.2,1.5
	c-0.3,0.2-0.4,0.6-0.2,0.9c0.1,0.2,0.3,0.3,0.6,0.3c0.1,0,0.2,0,0.3-0.1c0.9-0.5,1.8-0.9,2.7-1.3c1.2,5,6.3,8.2,13.5,8.2
	s12-3.1,13.1-8.2c0.9,0.4,1.8,0.8,2.7,1.3c0.1,0.1,0.2,0.1,0.3,0.1c0.2,0,0.4-0.1,0.6-0.3c0.2-0.3,0.1-0.6-0.1-0.8
	c0,0-0.1,0-0.1-0.1c-1-0.6-2.1-1.1-3.2-1.5c0-0.3,0.1-0.7,0-1c0-0.4,0-0.7-0.1-1.1c1,0,2,0.2,3,0.3C36.4,23.2,36.8,23,36.8,22.6z
	 M29.8,29.4c0.5-0.5,0.9-1.1,1.2-1.8C30.7,28.2,30.3,28.9,29.8,29.4z M31.2,26.9c0.1-0.3,0.2-0.7,0.3-1.1
	C31.5,26.2,31.4,26.5,31.2,26.9z M31.7,23.9c0,0.2,0,0.4-0.1,0.6C31.7,24.3,31.7,24.1,31.7,23.9L31.7,23.9z"/>
<path class="st2" d="M10.3,14.5c0,0,0-4.8,1.4-5.6c2.3-1.4,6.5,1.5,6.5,1.5"/>
<path class="st3" d="M10.3,15.1c-0.4,0-0.7-0.3-0.7-0.6c0,0,0,0,0-0.1c0-0.8,0-5.2,1.7-6.2c2.5-1.6,6.7,1.1,7.2,1.5
	c0.3,0.2,0.4,0.6,0.2,0.9c-0.2,0.3-0.6,0.4-0.9,0.2c-1.1-0.7-4.3-2.4-5.8-1.4c-0.7,0.4-1.1,2.9-1.1,5C11,14.8,10.7,15.1,10.3,15.1z"
	/>
<path class="st2" d="M30.1,14.5c0,0,0-4.8-1.4-5.6c-2.3-1.4-6.5,1.5-6.5,1.5"/>
<path class="st3" d="M30.1,15.1c-0.4,0-0.7-0.3-0.7-0.6c0,0,0,0,0-0.1c0-2.1-0.5-4.7-1.1-5.1c-1.6-1-4.7,0.7-5.8,1.4
	c-0.3,0.2-0.7,0.1-0.9-0.2c-0.2-0.3-0.1-0.7,0.2-0.9c0.5-0.3,4.7-3,7.2-1.5c1.6,1,1.7,5.3,1.7,6.2C30.8,14.8,30.5,15.1,30.1,15.1z"
	/>
<path class="st2" d="M32.3,23.1c0,6-5.1,9.2-12,9.2S7.9,29.1,7.9,23.1c0.2-3.8,2-7.3,4.9-9.7c2.1-1.7,4.7-2.7,7.5-2.8
	C27.2,10.7,32.3,17.1,32.3,23.1z"/>
<path class="st3" d="M20.4,10.7c6.9,0,12,6.5,12,12.4s-5.1,9.2-12,9.2S8,29.1,8,23.1c0.2-3.8,2-7.3,4.9-9.7
	C15,11.7,17.7,10.7,20.4,10.7 M20.4,9.4c-3,0-6,1.1-8.3,3C8.8,15,6.8,18.9,6.6,23.1c0,6.3,5.5,10.6,13.8,10.6
	c8.1,0,13.3-4.2,13.3-10.6S28.2,9.4,20.4,9.4L20.4,9.4z"/>
<path class="st3" d="M20.8,20.1h-1.3c-0.6,0-1.1,0.5-1.1,1.1c0,0.2,0.1,0.4,0.2,0.6l0.7,0.7c0.6,0.4,1.4,0.4,1.9,0l0.7-0.7
	c0.3-0.5,0.1-1.2-0.4-1.5C21.1,20.2,21,20.1,20.8,20.1z"/>
<path class="st3" d="M18.2,25.5c-1.5,0-2.6-1.2-2.6-2.6l0,0c0-0.4,0.2-0.7,0.6-0.8c0.4,0,0.7,0.2,0.8,0.6c0,0.1,0,0.1,0,0.2
	c0,0.7,0.6,1.3,1.3,1.3c0.7,0,1.3-0.6,1.3-1.3c0-0.4,0.2-0.7,0.6-0.8c0.4,0,0.7,0.2,0.8,0.6c0,0.1,0,0.1,0,0.2
	C20.9,24.3,19.7,25.5,18.2,25.5L18.2,25.5z"/>
<path class="st3" d="M22.2,25.5c-1.5,0-2.6-1.2-2.6-2.6l0,0c0-0.4,0.2-0.7,0.6-0.8c0.4,0,0.7,0.2,0.8,0.6c0,0.1,0,0.1,0,0.2
	c0,0.7,0.6,1.3,1.3,1.3s1.3-0.6,1.3-1.3c0-0.4,0.3-0.7,0.6-0.7c0,0,0,0,0.1,0c0.4,0,0.7,0.3,0.7,0.6l0,0
	C24.8,24.3,23.6,25.5,22.2,25.5L22.2,25.5z"/>
<path class="st3" d="M10.6,23.4l-0.2-0.1c-2.6-1.6-6.8-2-6.9-2c-0.4,0-0.6-0.4-0.6-0.8c0.1-0.3,0.4-0.6,0.8-0.6
	c2.6,0.2,5.2,0.9,7.4,2.1c0.3,0.2,0.4,0.5,0.3,0.9l0,0C11.3,23.3,10.9,23.5,10.6,23.4z M3.4,25.7c-0.2-0.1-0.4-0.2-0.5-0.5
	c-0.1-0.3,0.1-0.6,0.3-0.7c0,0,0.1,0,0.1-0.1c0.2,0,4.9-1.5,7.9,0.4c0.3,0.2,0.4,0.5,0.3,0.9l0,0c-0.2,0.3-0.5,0.4-0.9,0.3
	c-2.5-1.5-6.8-0.3-6.8-0.3C3.7,25.8,3.5,25.7,3.4,25.7z M29.3,22.4c-0.3,0-0.5-0.2-0.6-0.5c-0.1-0.3,0.1-0.7,0.4-0.8c0,0,0,0,0.1,0
	c2.6-0.5,5.2-0.5,7.8,0c0.4,0.1,0.6,0.4,0.6,0.8c-0.1,0.4-0.4,0.6-0.8,0.6l0,0c-0.1,0-4.3-0.8-7.2,0C29.4,22.4,29.4,22.4,29.3,22.4z
	 M36.5,26.8c-0.1,0-0.2,0-0.3-0.1c-0.1,0-3.9-2.4-6.6-1.7c-0.4,0-0.7-0.2-0.7-0.6c0-0.3,0.1-0.5,0.4-0.6c3.4-0.9,7.5,1.7,7.7,1.9
	c0.3,0.2,0.4,0.6,0.2,0.9C36.9,26.7,36.7,26.8,36.5,26.8z"/>
<path class="st2" d="M13.6,17.8c-0.1,0.7,0.4,1.4,1.1,1.4c0.7-0.1,1.2-0.7,1.2-1.4c0.1-0.7-0.4-1.4-1.2-1.4
	C14,16.5,13.5,17.1,13.6,17.8z"/>
<path class="st2" d="M24.2,17.9c-0.1,0.7,0.4,1.4,1.2,1.4c0.7-0.1,1.2-0.7,1.2-1.4l0,0c0.1-0.7-0.4-1.3-1.2-1.4
	C24.7,16.6,24.2,17.2,24.2,17.9z"/>
<path class="st3" d="M25.1,15.9c-1.2,0-2.2,1.3-2.2,3s1,3,2.2,3s2.2-1.3,2.2-3S26.4,15.9,25.1,15.9z M24.7,18.8
	c-0.6-0.1-1-0.6-0.9-1.2c0.1-0.5,0.4-0.9,0.9-0.9c0.6,0.1,1,0.6,0.9,1.2C25.6,18.4,25.2,18.8,24.7,18.8z M13.6,15.9
	c-1.2,0-2.2,1.3-2.2,3s1,3,2.2,3s2.2-1.3,2.2-3S14.8,15.9,13.6,15.9z M14,18.8c-0.6,0.1-1.1-0.3-1.2-0.9c-0.1-0.6,0.3-1.1,0.9-1.2
	c0.6-0.1,1.1,0.3,1.2,0.9v0.1C15,18.3,14.6,18.8,14,18.8L14,18.8L14,18.8z"/>
<path class="st4" d="M26.3,23.8c0,0.3,0.7,0.5,1.5,0.5c0.8,0,1.5-0.2,1.5-0.5c0-0.3-0.7-0.5-1.5-0.5C27,23.3,26.3,23.5,26.3,23.8z"
	/>
<path class="st4" d="M10.8,23.8c0,0.3,0.7,0.5,1.5,0.5s1.6-0.2,1.6-0.5c0-0.3-0.7-0.5-1.6-0.5S10.8,23.5,10.8,23.8z"/>
<text transform="matrix(1 0 0 1 6.5161 56.2773)" class="st5 st6">商店</text>
<text transform="matrix(1 0 0 1 6.5161 56.2773)" class="st7 st5 st6">商店</text>
</svg>
