<?xml version="1.0" encoding="utf-8"?>
<!-- Generator: Adobe Illustrator 23.0.0, SVG Export Plug-In . SVG Version: 6.00 Build 0)  -->
<svg version="1.1" id="图层_1" xmlns="http://www.w3.org/2000/svg" xmlns:xlink="http://www.w3.org/1999/xlink" x="0px" y="0px"
	 viewBox="0 0 39.9 58.2" style="enable-background:new 0 0 39.9 58.2;" xml:space="preserve">
<style type="text/css">
	.st0{opacity:0.4;fill:#FF8AA1;enable-background:new    ;}
	.st1{fill:#C3CBD8;}
	.st2{fill:#FFFFFF;}
	.st3{fill:#192B3A;}
	.st4{fill:#FF99B6;}
	.st5{font-family:'SimSun';}
	.st6{font-size:13.0326px;}
	.st7{fill:none;stroke:#000000;stroke-width:0.5;stroke-miterlimit:10;}
</style>
<title>shop</title>
<path class="st0" d="M19.9,40C8.9,40,0,31,0,19.9S9,0,20,0S40,9,40,20.1S31,40,20,40H19.9z"/>
<path class="st1" d="M36.7,22.6c0.1-0.4-0.2-0.7-0.6-0.8c-1.2-0.2-2.3-0.3-3.5-0.3c-0.4-2.2-1.4-4.2-2.7-5.9
	c0.1-0.1,0.1-0.2,0.1-0.3c0-0.8,0-5.2-1.7-6.2c-2.2-1.3-5.8,0.6-6.9,1.2c-0.6-0.1-1.2-0.1-1.9-0.1c-0.7,0-1.3,0.1-2,0.2
	c-1.1-0.7-4.7-2.7-7-1.3C9,9.9,8.9,14.3,8.9,15.1c0,0.1,0,0.2,0.1,0.3c-1.4,1.7-2.4,3.8-2.9,5.9c-1.2,0.1-2.3,0.2-3.5,0.4
	C2.2,21.9,2,22.2,2,22.6c0.2,0.4,0.5,0.6,0.9,0.6c0,0,1.3-0.2,3-0.3c0,0.3,0,0.7,0,1c0,0.3,0,0.7,0.1,1c-1.1,0.4-2.2,0.9-3.2,1.5
	c-0.3,0.2-0.4,0.6-0.2,0.9c0.1,0.2,0.3,0.3,0.6,0.3c0.1,0,0.2,0,0.3-0.1c0.9-0.5,1.8-0.9,2.7-1.3c1.2,5,6.3,8.2,13.5,8.2
	s12-3.1,13.1-8.2c0.9,0.4,1.8,0.8,2.7,1.3c0.1,0.1,0.2,0.1,0.3,0.1c0.2,0,0.4-0.1,0.6-0.3c0.2-0.3,0.1-0.6-0.1-0.8
	c0,0-0.1,0-0.1-0.1c-1-0.6-2.1-1.1-3.2-1.5c0-0.3,0.1-0.7,0-1c0-0.4,0-0.7-0.1-1.1c1,0,2,0.2,3,0.3C36.3,23.2,36.7,23,36.7,22.6z
	 M29.7,29.4c0.5-0.5,0.9-1.1,1.2-1.8C30.6,28.2,30.2,28.9,29.7,29.4z M31.1,26.9c0.1-0.3,0.2-0.7,0.3-1.1
	C31.4,26.2,31.3,26.5,31.1,26.9z M31.6,23.9c0,0.2,0,0.4-0.1,0.6C31.6,24.3,31.6,24.1,31.6,23.9L31.6,23.9z"/>
<path class="st2" d="M10.2,14.5c0,0,0-4.8,1.4-5.6c2.3-1.4,6.5,1.5,6.5,1.5"/>
<path class="st3" d="M10.2,15.1c-0.4,0-0.7-0.3-0.7-0.6c0,0,0,0,0-0.1c0-0.8,0-5.2,1.7-6.2c2.5-1.6,6.7,1.1,7.2,1.5
	c0.3,0.2,0.4,0.6,0.2,0.9c-0.2,0.3-0.6,0.4-0.9,0.2c-1.1-0.7-4.3-2.4-5.8-1.4c-0.7,0.4-1.1,2.9-1.1,5C10.9,14.8,10.6,15.1,10.2,15.1
	z"/>
<path class="st2" d="M30,14.5c0,0,0-4.8-1.4-5.6c-2.3-1.4-6.5,1.5-6.5,1.5"/>
<path class="st3" d="M30,15.1c-0.4,0-0.7-0.3-0.7-0.6c0,0,0,0,0-0.1c0-2.1-0.5-4.7-1.1-5.1c-1.6-1-4.7,0.7-5.8,1.4
	c-0.3,0.2-0.7,0.1-0.9-0.2c-0.2-0.3-0.1-0.7,0.2-0.9c0.5-0.3,4.7-3,7.2-1.5c1.6,1,1.7,5.3,1.7,6.2C30.7,14.8,30.4,15.1,30,15.1z"/>
<path class="st2" d="M32.2,23.1c0,6-5.1,9.2-12,9.2S7.8,29.1,7.8,23.1c0.2-3.8,2-7.3,4.9-9.7c2.1-1.7,4.7-2.7,7.5-2.8
	C27.1,10.6,32.2,17,32.2,23.1z"/>
<path class="st3" d="M20.3,10.6c6.9,0,12,6.5,12,12.4s-5.1,9.2-12,9.2S7.9,29.1,7.9,23.1c0.2-3.8,2-7.3,4.9-9.7
	C14.9,11.6,17.6,10.6,20.3,10.6 M20.3,9.3c-3,0-6,1.1-8.3,3c-3.3,2.6-5.3,6.5-5.5,10.7c0,6.3,5.5,10.6,13.8,10.6
	c8.1,0,13.3-4.2,13.3-10.6S28.1,9.3,20.3,9.3L20.3,9.3z"/>
<path class="st3" d="M20.7,20.1h-1.3c-0.6,0-1.1,0.5-1.1,1.1c0,0.2,0.1,0.4,0.2,0.6l0.7,0.7c0.6,0.4,1.4,0.4,1.9,0l0.7-0.7
	c0.3-0.5,0.1-1.2-0.4-1.5C21,20.2,20.9,20.1,20.7,20.1z"/>
<path class="st3" d="M18.1,25.5c-1.5,0-2.6-1.2-2.6-2.6l0,0c0-0.4,0.2-0.7,0.6-0.8c0.4,0,0.7,0.2,0.8,0.6c0,0.1,0,0.1,0,0.2
	c0,0.7,0.6,1.3,1.3,1.3c0.7,0,1.3-0.6,1.3-1.3c0-0.4,0.2-0.7,0.6-0.8c0.4,0,0.7,0.2,0.8,0.6c0,0.1,0,0.1,0,0.2
	C20.8,24.3,19.6,25.5,18.1,25.5L18.1,25.5z"/>
<path class="st3" d="M22.1,25.5c-1.5,0-2.6-1.2-2.6-2.6l0,0c0-0.4,0.2-0.7,0.6-0.8c0.4,0,0.7,0.2,0.8,0.6c0,0.1,0,0.1,0,0.2
	c0,0.7,0.6,1.3,1.3,1.3c0.7,0,1.3-0.6,1.3-1.3c0-0.4,0.3-0.7,0.6-0.7c0,0,0,0,0.1,0c0.4,0,0.7,0.3,0.7,0.6l0,0
	C24.7,24.3,23.5,25.5,22.1,25.5L22.1,25.5z"/>
<path class="st3" d="M10.9,22.4h-0.2c-2.9-0.8-7.1,0-7.2,0c-0.4,0.1-0.7-0.2-0.8-0.6c0-0.3,0.2-0.7,0.6-0.8c2.6-0.5,5.2-0.5,7.7,0
	c0.3,0.1,0.5,0.4,0.5,0.8l0,0C11.5,22.1,11.2,22.4,10.9,22.4z M3.7,26.8c-0.2,0-0.4-0.1-0.6-0.3c-0.2-0.3-0.1-0.6,0.1-0.8
	c0,0,0.1,0,0.1-0.1c0.2-0.1,4.3-2.8,7.7-1.9c0.3,0.1,0.5,0.4,0.5,0.8l0,0c-0.1,0.3-0.4,0.5-0.8,0.5c-2.8-0.7-6.6,1.7-6.6,1.7
	C4,26.8,3.8,26.8,3.7,26.8z M29.4,22.9c-0.3,0-0.5-0.1-0.7-0.4s0-0.7,0.3-0.9c0,0,0,0,0.1,0c2.5-0.9,5.1-1.3,7.7-1.1
	c0.4,0,0.7,0.3,0.7,0.7c0,0.4-0.3,0.7-0.7,0.7l0,0c-0.1,0-4.4-0.2-7.1,1.1C29.5,22.9,29.5,22.9,29.4,22.9z M36.8,25.7
	c-0.1,0-0.2,0.1-0.3,0c-0.1,0-4.4-1.2-6.8,0.2c-0.4,0.1-0.7,0-0.8-0.4c-0.1-0.3,0-0.5,0.2-0.7c3-1.8,7.7-0.5,7.9-0.4
	c0.3,0.1,0.6,0.5,0.4,0.8C37.1,25.5,36.9,25.7,36.8,25.7z"/>
<path class="st2" d="M13.5,17.7c-0.1,0.7,0.4,1.4,1.1,1.4c0.7-0.1,1.2-0.7,1.2-1.4c0.1-0.7-0.4-1.4-1.2-1.4
	C13.9,16.4,13.4,17,13.5,17.7z"/>
<path class="st2" d="M25.8,17.7c-0.1,0.7,0.4,1.4,1.2,1.4c0.7-0.1,1.2-0.7,1.2-1.4l0,0c0.1-0.7-0.4-1.3-1.2-1.4
	C26.3,16.4,25.8,17,25.8,17.7z"/>
<path class="st3" d="M27,15.9c-1.2,0-2.2,1.3-2.2,3c0,1.7,1,3,2.2,3c1.2,0,2.2-1.3,2.2-3C29.2,17.2,28.3,15.9,27,15.9z M27,18.8
	c-0.6-0.1-1-0.6-0.9-1.2c0.1-0.5,0.4-0.9,0.9-0.9c0.6,0.1,1,0.6,0.9,1.2C27.9,18.4,27.5,18.8,27,18.8z M15,15.9
	c-1.2,0-2.2,1.3-2.2,3c0,1.7,1,3,2.2,3s2.2-1.3,2.2-3C17.2,17.2,16.2,15.9,15,15.9z M15.4,18.8c-0.6,0.1-1.1-0.3-1.2-0.9
	c-0.1-0.6,0.3-1.1,0.9-1.2c0.6-0.1,1.1,0.3,1.2,0.9v0.1C16.4,18.3,16,18.8,15.4,18.8L15.4,18.8L15.4,18.8z"/>
<path class="st4" d="M26.2,23.8c0,0.3,0.7,0.5,1.5,0.5s1.5-0.2,1.5-0.5s-0.7-0.5-1.5-0.5S26.2,23.5,26.2,23.8z"/>
<path class="st4" d="M10.7,23.8c0,0.3,0.7,0.5,1.5,0.5c0.8,0,1.6-0.2,1.6-0.5s-0.7-0.5-1.6-0.5S10.7,23.5,10.7,23.8z"/>
<text transform="matrix(1 0 0 1 6.4161 56.2499)" class="st5 st6">商店</text>
<text transform="matrix(1 0 0 1 6.4161 56.2499)" class="st7 st5 st6">商店</text>
</svg>
