<svg id="图层_1" data-name="图层 1" xmlns="http://www.w3.org/2000/svg" viewBox="0 0 15.3 15.3"><defs><style>.cls-1{fill:#1296db;}</style></defs><title>smile</title><path class="cls-1" d="M8,.35A7.65,7.65,0,1,0,15.65,8,7.63,7.63,0,0,0,8,.35ZM8,14.89A6.89,6.89,0,1,1,14.89,8,6.86,6.86,0,0,1,8,14.89Z" transform="translate(-0.35 -0.35)"/><path class="cls-1" d="M8,12.66a4.68,4.68,0,0,0,4.66-4.17H3.34A4.68,4.68,0,0,0,8,12.66Z" transform="translate(-0.35 -0.35)"/><path class="cls-1" d="M9.81,5.5a1.07,1.07,0,0,0,.9,1.18,1.07,1.07,0,0,0,.91-1.18h0a1.08,1.08,0,0,0-.91-1.19C10.21,4.31,9.81,4.84,9.81,5.5Z" transform="translate(-0.35 -0.35)"/><path class="cls-1" d="M4.38,5.5a1.07,1.07,0,0,0,.91,1.18,1.07,1.07,0,0,0,.9-1.18h0c0-.66-.4-1.19-.9-1.19A1.08,1.08,0,0,0,4.38,5.5Z" transform="translate(-0.35 -0.35)"/></svg>