<svg id="图层_1" data-name="图层 1" xmlns="http://www.w3.org/2000/svg" viewBox="0 0 258.13 127.9"><defs><style>.cls-1{fill:#ff8aa1;}.cls-2{fill:#fff;}.cls-3,.cls-4{isolation:isolate;}.cls-3{font-size:44px;stroke:#000;stroke-miterlimit:10;font-family:SimSun;letter-spacing:0.2em;}</style></defs><title>taomao</title><path class="cls-1" d="M0,112.9a15,15,0,0,0,15,15H120.3a15,15,0,0,0,15-15h0V15a15,15,0,0,0-15-15H15A15,15,0,0,0,0,15Z"/><path class="cls-2" d="M33,48.6l-5.3,51a4,4,0,0,0,3.5,4.4h72.5a4,4,0,0,0,4-4v-.4l-5.3-51a4.41,4.41,0,0,0-4.3-3.9H84.4V40.6a16.6,16.6,0,0,0-33.2,0h0v4.1h-14A4.24,4.24,0,0,0,33,48.6Zm23.8,1.6V40.6a11,11,0,0,1,11-11h.1A11.05,11.05,0,0,1,79,40.6h0v9.6H98.2A1.28,1.28,0,0,1,97,49.1l5.3,51a1.72,1.72,0,0,1,1.4-1.7h-72a1.54,1.54,0,0,1,1.5,1.5v.2l5.3-51a1.28,1.28,0,0,1-1.2,1.1Zm22.1,0V62.6a2.8,2.8,0,0,0,5.6,0V44.7H56.8v5.5Zm-22.1,0H51.3V62.6a2.8,2.8,0,1,0,5.6,0h0Z"/><text class="cls-3" transform="translate(152.03 79.18)">淘喵</text><text class="cls-4"/><text class="cls-4"/><text class="cls-4"/></svg>