<svg id="图层_1" data-name="图层 1" xmlns="http://www.w3.org/2000/svg" viewBox="0 0 52.49 49.9"><defs><style>.cls-1{fill:#fff400;}</style></defs><title>unnice_n</title><path class="cls-1" d="M50.06,59.92a4.72,4.72,0,0,1-2.18-.54l-11.1-5.82L25.7,59.41a4.72,4.72,0,0,1-4.8-.24A4.32,4.32,0,0,1,19,54.84l2.15-12.62L11.8,33.08a4.19,4.19,0,0,1-1.07-4.48,4.46,4.46,0,0,1,3.64-2.92l12.72-1.89,5.52-11.23a4.64,4.64,0,0,1,8.24,0l5.52,11.23,12.72,1.85a4.46,4.46,0,0,1,3.64,2.92,4.28,4.28,0,0,1-1.07,4.51l-9.35,9.11L54.48,54.8a4.35,4.35,0,0,1-1.92,4.37,4.68,4.68,0,0,1-2.54.75Z" transform="translate(-10.48 -10.05)"/></svg>