<?xml version="1.0" encoding="utf-8"?>
<!-- Generator: Adobe Illustrator 23.0.0, SVG Export Plug-In . SVG Version: 6.00 Build 0)  -->
<svg version="1.1" id="图层_1" xmlns="http://www.w3.org/2000/svg" xmlns:xlink="http://www.w3.org/1999/xlink" x="0px" y="0px"
	 viewBox="0 0 128 128" style="enable-background:new 0 0 128 128;" xml:space="preserve">
<style type="text/css">
	.st0{fill:#FFFFFF;stroke:#FF8AA1;stroke-width:9;stroke-miterlimit:10;}
</style>
<path class="st0" d="M64,70.7c9.8,0,18.9-8.6,19.9-21.1C85,36.4,76.3,24,64,24S43,36.4,44.1,49.5C45.1,62.1,54.2,70.7,64,70.7z
	 M63.8,77.4C41.8,77.4,24,86.2,24,97c0,3.7,3.4,5.1,13.4,6.2C45.1,104,54.3,104,64,104c9.9,0,19.8,0,26.8-0.8
	c9.8-1.2,13.3-2.5,13.3-6.2C104,86.2,85.8,77.4,63.8,77.4z"/>
</svg>
