<svg id="图层_1" data-name="图层 1" xmlns="http://www.w3.org/2000/svg" viewBox="0 0 40 58.75"><defs><style>.cls-1{fill:#00b9f4;opacity:0.4;}.cls-1,.cls-6{isolation:isolate;}.cls-2{fill:#c3cbd8;}.cls-3{fill:#fff;}.cls-4{fill:#192b3a;}.cls-5{fill:#ff99b6;}.cls-6{font-size:13px;stroke:#000;stroke-miterlimit:10;stroke-width:0.5px;font-family:SimSun;letter-spacing:0.14em;}</style></defs><title>watch</title><path class="cls-1" d="M20.07,40a19.94,19.94,0,1,1,.12,0Z" transform="translate(-0.07)"/><path class="cls-2" d="M33.77,22.1c0,6.1-6.11,9.48-13.64,9.48S6.49,28.2,6.49,22.1s6.11-12,13.64-12S33.77,16,33.77,22.1Z" transform="translate(-0.07)"/><path class="cls-3" d="M32.4,20.1c0,6.1-6.11,9.48-13.65,9.48-4.7,0-8.85-1.32-11.31-3.8-.71-.73-3.1-9,5.36-13.52,9.26-5,16.9.6,18.07,2.56A10.41,10.41,0,0,1,32.4,20.1Z" transform="translate(-0.07)"/><path class="cls-2" d="M24.15,10.39S28.4,7.86,30,9.11s1.72,6.5,1.72,6.5a22.42,22.42,0,0,0-4-3.25C26.49,11.79,24.15,10.39,24.15,10.39ZM8.52,15.82a14.72,14.72,0,0,1,3.25-3.15c1.44-.88,4.38-2.31,4.38-2.31S11.52,7.87,9.8,9.07C7.62,10.61,8.52,15.82,8.52,15.82Z" transform="translate(-0.07)"/><path class="cls-3" d="M14.24,17.54a1.17,1.17,0,0,0,1,1.28,1.17,1.17,0,0,0,1-1.28,1.17,1.17,0,0,0-1-1.28A1.17,1.17,0,0,0,14.24,17.54Z" transform="translate(-0.07)"/><path class="cls-3" d="M23.8,17.7a1.18,1.18,0,0,0,1,1.28,1.18,1.18,0,0,0,1-1.28h0a1.18,1.18,0,0,0-1-1.28A1.18,1.18,0,0,0,23.8,17.7Z" transform="translate(-0.07)"/><path class="cls-4" d="M25.23,15.88c-1.1,0-2,1.19-2,2.65s.89,2.65,2,2.65,2-1.18,2-2.65S26.33,15.88,25.23,15.88Zm-.4,2.62a1,1,0,1,1,.85-1,.9.9,0,0,1-.85,1Zm-9.91-2.62c-1.1,0-2,1.19-2,2.65s.89,2.65,2,2.65,2-1.18,2-2.65S16,15.88,14.92,15.88Zm.39,2.62a1,1,0,1,1,.85-1,.91.91,0,0,1-.85,1Zm5.28,4.65h-1a.91.91,0,0,0-.91.91v.12a.91.91,0,0,0,.91.91h0v.71a.47.47,0,0,0,.94,0v-.71h.05a.92.92,0,0,0,.91-.92v-.11A.91.91,0,0,0,20.59,23.15Z" transform="translate(-0.07)"/><path class="cls-4" d="M35.64,22.91l-1.59-.13a6.79,6.79,0,0,0,0-.78c0-.23,0-.46,0-.68l1.58-.13a.48.48,0,0,0,.44-.5.47.47,0,0,0-.5-.44h0L34,20.39a11.65,11.65,0,0,0-1.74-4.33A16.57,16.57,0,0,0,32.32,13c-.14-2.26-.8-3.75-2-4.42S27.73,8,25.81,8.8A14.56,14.56,0,0,0,23.48,10a14.56,14.56,0,0,0-6.82,0A14.46,14.46,0,0,0,14.34,8.8C12.42,8,10.89,8,9.79,8.57S8,10.73,7.83,13a16.57,16.57,0,0,0,.11,3.07A11.32,11.32,0,0,0,6.2,20.39l-1.62-.14a.47.47,0,1,0-.08.94l1.58.13c0,.22,0,.45,0,.68s0,.53,0,.78l-1.59.13a.47.47,0,1,0,0,.94h0l1.65-.14a8,8,0,0,0,1,2.54,9.79,9.79,0,0,0,3,3.19,17.77,17.77,0,0,0,9.84,2.66,17.72,17.72,0,0,0,9.84-2.66A9.73,9.73,0,0,0,33,26.25a8.23,8.23,0,0,0,1-2.54l1.65.14h0a.47.47,0,0,0,0-.94ZM26.16,9.67c1.13-.46,2.69-.87,3.73-.28s1.41,2.33,1.5,3.65a17,17,0,0,1,0,1.89A15.31,15.31,0,0,0,30,13.44a14.88,14.88,0,0,0-4.45-2.8c-.26-.11-.53-.21-.79-.3A12.41,12.41,0,0,1,26.16,9.67ZM8.76,13.05c.08-1.33.41-3,1.5-3.66s2.59-.18,3.72.27a15.74,15.74,0,0,1,1.44.68c-.27.09-.53.19-.79.3a14.75,14.75,0,0,0-4.45,2.8,13.23,13.23,0,0,0-1.41,1.49A14.74,14.74,0,0,1,8.76,13.05ZM29.39,28.66a16.81,16.81,0,0,1-9.32,2.5,16.78,16.78,0,0,1-9.31-2.5,8.06,8.06,0,0,1-3.59-5l1.69-.14a.47.47,0,0,0,.43-.5.46.46,0,0,0-.5-.43h0L7,22.71c0-.23,0-.47,0-.71s0-.4,0-.61l1.76.15h0a.47.47,0,1,0,0-.94l-1.72-.14a11.45,11.45,0,0,1,3.67-6.33,13.65,13.65,0,0,1,18.52,0A11.53,11.53,0,0,1,33,20.46l-1.72.14a.47.47,0,1,0,0,.94h0l1.77-.14c0,.2,0,.4,0,.6s0,.48,0,.71l-1.76-.14a.47.47,0,0,0-.07.93l1.69.14A8.14,8.14,0,0,1,29.39,28.66Z" transform="translate(-0.07)"/><path class="cls-5" d="M25.57,22.82c0,.26.62.47,1.38.47s1.37-.21,1.37-.47-.61-.46-1.37-.46S25.57,22.56,25.57,22.82Z" transform="translate(-0.07)"/><path class="cls-5" d="M11.76,22.82c0,.26.62.47,1.38.47s1.37-.21,1.37-.47-.62-.46-1.37-.46S11.76,22.56,11.76,22.82Z" transform="translate(-0.07)"/><text class="cls-6" transform="translate(6.92 56.67)">看看</text></svg>